<?xml version="1.0" encoding="UTF-8" standalone="no"?>
<!DOCTYPE svg PUBLIC "-//W3C//DTD SVG 1.1//EN" "http://www.w3.org/Graphics/SVG/1.1/DTD/svg11.dtd">
<svg width="100%" height="100%" viewBox="0 0 1760 409" version="1.1" xmlns="http://www.w3.org/2000/svg" xmlns:xlink="http://www.w3.org/1999/xlink" xml:space="preserve" xmlns:serif="http://www.serif.com/" style="fill-rule:evenodd;clip-rule:evenodd;stroke-linejoin:round;stroke-miterlimit:2;">
    <g transform="matrix(1,0,0,1,-870,-1051)">
        <g transform="matrix(5.89992,0,0,5.89992,-111.335,-945.674)">
            <g transform="matrix(0.998072,0,0,0.99717,0.233889,0.90149)">
                <path d="M202.347,360.607C202.347,368.121 198.013,373.515 188.091,373.515L175.183,373.515L175.183,348.084L188.091,348.084C198.109,348.084 202.347,352.997 202.347,360.607ZM166.417,340.86L166.417,408L175.183,408L175.183,380.547L185.779,380.547L201.769,408L212.269,408L195.412,379.872C206.682,377.368 211.402,369.18 211.402,360.607C211.402,349.626 203.888,340.86 188.091,340.86L166.417,340.86Z" style="fill-rule:nonzero;"/>
            </g>
            <g transform="matrix(0.998404,0,0,0.963718,0.0719446,13.7143)">
                <path d="M238.759,361.763C247.814,361.763 255.52,367.446 255.424,377.753L222.094,377.753C223.058,367.446 230.186,361.763 238.759,361.763ZM263.419,391.721L253.979,391.721C252.052,397.404 247.043,401.45 239.144,401.45C230.186,401.45 222.672,395.574 221.998,384.881L264.189,384.881C264.382,383.051 264.478,381.51 264.478,379.583C264.478,365.134 254.46,354.346 239.144,354.346C223.732,354.346 213.04,364.845 213.04,381.51C213.04,398.271 224.117,408.867 239.144,408.867C252.245,408.867 260.722,401.353 263.419,391.721Z" style="fill-rule:nonzero;"/>
            </g>
            <g transform="matrix(0.997961,0,0,0.995373,2.47844,1.63451)">
                <path d="M263.033,355.213L283.744,408L293.954,408L314.665,355.213L305.321,355.213L288.945,399.909L272.473,355.213L263.033,355.213Z" style="fill-rule:nonzero;"/>
            </g>
            <g transform="matrix(0.995163,0,0,0.979112,5.08867,10.7201)">
                <path d="M324.008,346.64C327.187,346.64 329.788,344.039 329.788,340.667C329.788,337.296 327.187,334.695 324.008,334.695C320.637,334.695 318.036,337.296 318.036,340.667C318.036,344.039 320.637,346.64 324.008,346.64Z" style="fill-rule:nonzero;"/>
            </g>
            <g transform="matrix(0.986129,0,0,0.994234,8.06238,2.09931)">
                <rect x="319.481" y="355.152" width="8.766" height="52.848" style="fill-rule:nonzero;"/>
            </g>
            <g transform="matrix(1,0,0,0.995373,3.47289,1.63451)">
                <path d="M370.631,355.213L335.086,355.213L335.086,362.341L360.516,362.341L334.893,400.775L334.893,408L370.824,408L370.824,400.775L344.911,400.775L370.631,362.341L370.631,355.213Z" style="fill-rule:nonzero;"/>
            </g>
            <g transform="matrix(0.995163,0,0,0.979112,5.27345,10.7201)">
                <path d="M381.901,346.64C385.08,346.64 387.681,344.039 387.681,340.667C387.681,337.296 385.08,334.695 381.901,334.695C378.53,334.695 375.929,337.296 375.929,340.667C375.929,344.039 378.53,346.64 381.901,346.64Z" style="fill-rule:nonzero;"/>
            </g>
            <g transform="matrix(0.986129,0,0,0.995373,8.77016,1.63451)">
                <rect x="377.374" y="355.213" width="8.766" height="52.787" style="fill-rule:nonzero;"/>
            </g>
            <g transform="matrix(0.997298,0,0,0.963718,4.41647,13.7143)">
                <path d="M446.344,381.51C446.344,364.845 434.688,354.346 419.661,354.346C404.731,354.346 392.979,364.845 392.979,381.51C392.979,398.271 404.345,408.867 419.276,408.867C434.303,408.867 446.344,398.271 446.344,381.51ZM401.937,381.51C401.937,368.217 410.318,361.956 419.565,361.956C428.62,361.956 437.386,368.217 437.386,381.51C437.386,394.9 428.427,401.161 419.276,401.161C410.125,401.161 401.937,394.9 401.937,381.51Z" style="fill-rule:nonzero;"/>
            </g>
            <g transform="matrix(0.995163,0,0,0.979112,5.21232,7.53384)">
                <path d="M461.66,402.606C461.66,399.234 459.059,396.633 455.88,396.633C452.509,396.633 449.908,399.234 449.908,402.606C449.908,405.977 452.509,408.578 455.88,408.578C459.059,408.578 461.66,405.977 461.66,402.606Z" style="fill:rgb(0,133,255);fill-rule:nonzero;"/>
            </g>
        </g>
    </g>
</svg>
